<?xml version="1.0" encoding="UTF-8"?>
<svg version="1.1" xmlns="http://www.w3.org/2000/svg" width="48" height="48">
<path d="M0 0 C2.05078125 0.03255208 4.1015625 0.06510417 6.15234375 0.09765625 C5.60239364 6.75152551 4.65771948 13.19309436 3.27734375 19.72265625 C2.91834595 21.46204895 2.56028682 23.20163563 2.203125 24.94140625 C2.02604004 25.80121094 1.84895508 26.66101563 1.66650391 27.546875 C0.62399429 32.71883155 -0.2993496 37.91320478 -1.234375 43.10546875 C-1.84765625 46.09765625 -1.84765625 46.09765625 -2.84765625 48.09765625 C-5.48765625 48.09765625 -8.12765625 48.09765625 -10.84765625 48.09765625 C-10.06343359 40.94272595 -8.74984625 33.91715739 -7.41015625 26.84765625 C-6.97286711 24.53015355 -6.53666152 22.21244613 -6.1015625 19.89453125 C-5.89031738 18.76982422 -5.67907227 17.64511719 -5.46142578 16.48632812 C-4.66945191 12.11377546 -3.9702776 7.72852822 -3.29272461 3.33691406 C-2.65740569 0.14045485 -2.65740569 0.14045485 0 0 Z " fill="#3670FC" transform="translate(38.84765625,-0.09765625)"/>
<path d="M0 0 C2.97 0 5.94 0 9 0 C8.4125499 7.95660267 6.8746397 15.3944193 4.9375 23.125 C4.65583984 24.27226563 4.37417969 25.41953125 4.08398438 26.6015625 C3.39539522 29.40260314 2.70063125 32.20195188 2 35 C-0.97 35 -3.94 35 -7 35 C-5.60375454 27.07181412 -4.034332 19.18950337 -2.375 11.3125 C-2.14554688 10.21744141 -1.91609375 9.12238281 -1.6796875 7.99414062 C-1.12108732 5.32915225 -0.56117263 2.66444765 0 0 Z " fill="#3670FB" transform="translate(22,13)"/>
<path d="M0 0 C2.64 0 5.28 0 8 0 C9.66363076 3.32726153 8.00831958 6.72734418 7.125 10.1875 C5.52598928 16.5376792 5.52598928 16.5376792 4.4296875 22.98828125 C4 26 4 26 3 27 C0.32941149 27.14115161 -2.32432238 27.04247107 -5 27 C-5.22833417 21.4315926 -4.42141111 16.6386233 -3.0625 11.25 C-2.88009766 10.49589844 -2.69769531 9.74179687 -2.50976562 8.96484375 C-1.76976985 5.93489743 -0.98665772 2.95997316 0 0 Z " fill="#366EFB" transform="translate(8,21)"/>
</svg>
